<?xml version="1.0" encoding="UTF-8" standalone="no"?>
<svg
   version="1.2"
   width="123.5mm"
   height="82.44mm"
   viewBox="0 0 12350 8244"
   preserveAspectRatio="xMidYMid"
   fill-rule="evenodd"
   stroke-width="28.222"
   stroke-linejoin="round"
   xml:space="preserve"
   id="svg1263"
   sodipodi:docname="BoatB.svg"
   inkscape:version="1.2.2 (732a01da63, 2022-12-09, custom)"
   xmlns:inkscape="http://www.inkscape.org/namespaces/inkscape"
   xmlns:sodipodi="http://sodipodi.sourceforge.net/DTD/sodipodi-0.dtd"
   xmlns="http://www.w3.org/2000/svg"
   xmlns:svg="http://www.w3.org/2000/svg"
   xmlns:ooo="http://xml.openoffice.org/svg/export"><sodipodi:namedview
   id="namedview1265"
   pagecolor="#ffffff"
   bordercolor="#000000"
   borderopacity="0.25"
   inkscape:showpageshadow="2"
   inkscape:pageopacity="0.0"
   inkscape:pagecheckerboard="0"
   inkscape:deskcolor="#d1d1d1"
   inkscape:document-units="mm"
   showgrid="false"
   inkscape:zoom="2.6573871"
   inkscape:cx="231.80665"
   inkscape:cy="155.79213"
   inkscape:window-width="1920"
   inkscape:window-height="1031"
   inkscape:window-x="0"
   inkscape:window-y="25"
   inkscape:window-maximized="1"
   inkscape:current-layer="svg1263" />
 <defs
   class="ClipPathGroup"
   id="defs1121">
  <clipPath
   id="presentation_clip_path"
   clipPathUnits="userSpaceOnUse">
   <rect
   x="0"
   y="0"
   width="12350"
   height="8244"
   id="rect1115" />
  </clipPath>
  <clipPath
   id="presentation_clip_path_shrink"
   clipPathUnits="userSpaceOnUse">
   <rect
   x="12"
   y="8"
   width="12326"
   height="8228"
   id="rect1118" />
  </clipPath>
 </defs>
 <defs
   class="TextShapeIndex"
   id="defs1125">
  <g
   ooo:slide="id1"
   ooo:id-list="id3 id4 id5 id6 id7 id8 id9 id10 id11 id12 id13 id14 id15"
   id="g1123" />
 </defs>
 <defs
   class="EmbeddedBulletChars"
   id="defs1157">
  <g
   id="bullet-char-template-57356"
   transform="scale(0.00048828125,-0.00048828125)">
   <path
   d="M 580,1141 L 1163,571 580,0 -4,571 580,1141 Z"
   id="path1127" />
  </g>
  <g
   id="bullet-char-template-57354"
   transform="scale(0.00048828125,-0.00048828125)">
   <path
   d="M 8,1128 L 1137,1128 1137,0 8,0 8,1128 Z"
   id="path1130" />
  </g>
  <g
   id="bullet-char-template-10146"
   transform="scale(0.00048828125,-0.00048828125)">
   <path
   d="M 174,0 L 602,739 174,1481 1456,739 174,0 Z M 1358,739 L 309,1346 659,739 1358,739 Z"
   id="path1133" />
  </g>
  <g
   id="bullet-char-template-10132"
   transform="scale(0.00048828125,-0.00048828125)">
   <path
   d="M 2015,739 L 1276,0 717,0 1260,543 174,543 174,936 1260,936 717,1481 1274,1481 2015,739 Z"
   id="path1136" />
  </g>
  <g
   id="bullet-char-template-10007"
   transform="scale(0.00048828125,-0.00048828125)">
   <path
   d="M 0,-2 C -7,14 -16,27 -25,37 L 356,567 C 262,823 215,952 215,954 215,979 228,992 255,992 264,992 276,990 289,987 310,991 331,999 354,1012 L 381,999 492,748 772,1049 836,1024 860,1049 C 881,1039 901,1025 922,1006 886,937 835,863 770,784 769,783 710,716 594,584 L 774,223 C 774,196 753,168 711,139 L 727,119 C 717,90 699,76 672,76 641,76 570,178 457,381 L 164,-76 C 142,-110 111,-127 72,-127 30,-127 9,-110 8,-76 1,-67 -2,-52 -2,-32 -2,-23 -1,-13 0,-2 Z"
   id="path1139" />
  </g>
  <g
   id="bullet-char-template-10004"
   transform="scale(0.00048828125,-0.00048828125)">
   <path
   d="M 285,-33 C 182,-33 111,30 74,156 52,228 41,333 41,471 41,549 55,616 82,672 116,743 169,778 240,778 293,778 328,747 346,684 L 369,508 C 377,444 397,411 428,410 L 1163,1116 C 1174,1127 1196,1133 1229,1133 1271,1133 1292,1118 1292,1087 L 1292,965 C 1292,929 1282,901 1262,881 L 442,47 C 390,-6 338,-33 285,-33 Z"
   id="path1142" />
  </g>
  <g
   id="bullet-char-template-9679"
   transform="scale(0.00048828125,-0.00048828125)">
   <path
   d="M 813,0 C 632,0 489,54 383,161 276,268 223,411 223,592 223,773 276,916 383,1023 489,1130 632,1184 813,1184 992,1184 1136,1130 1245,1023 1353,916 1407,772 1407,592 1407,412 1353,268 1245,161 1136,54 992,0 813,0 Z"
   id="path1145" />
  </g>
  <g
   id="bullet-char-template-8226"
   transform="scale(0.00048828125,-0.00048828125)">
   <path
   d="M 346,457 C 273,457 209,483 155,535 101,586 74,649 74,723 74,796 101,859 155,911 209,963 273,989 346,989 419,989 480,963 531,910 582,859 608,796 608,723 608,648 583,586 532,535 482,483 420,457 346,457 Z"
   id="path1148" />
  </g>
  <g
   id="bullet-char-template-8211"
   transform="scale(0.00048828125,-0.00048828125)">
   <path
   d="M -4,459 L 1135,459 1135,606 -4,606 -4,459 Z"
   id="path1151" />
  </g>
  <g
   id="bullet-char-template-61548"
   transform="scale(0.00048828125,-0.00048828125)">
   <path
   d="M 173,740 C 173,903 231,1043 346,1159 462,1274 601,1332 765,1332 928,1332 1067,1274 1183,1159 1299,1043 1357,903 1357,740 1357,577 1299,437 1183,322 1067,206 928,148 765,148 601,148 462,206 346,322 231,437 173,577 173,740 Z"
   id="path1154" />
  </g>
 </defs>
 
 
<g
   inkscape:groupmode="layer"
   id="layer1"
   inkscape:label="Layer 1"><path
     fill="#000000"
     stroke="none"
     d="m 4268,8235 c -218,-10 -409,-26 -425,-36 -15,-10 -128,-20 -251,-22 C 2514,8156 1693,7936 1137,7517 628,7133 307,6657 118,6006 43,5748 4,5475 0,5187 v -85 c 10,-919 377,-1990 1106,-3232 209,-356 227,-441 118,-544 -75,-71 -176,-78 -517,-38 L 533,1308 419,1100 C 290,863 277,751 350,499 405,311 449,286 680,309 c 135,13 200,7 281,-27 57,-25 173,-54 256,-66 94,-13 186,-47 239,-86 48,-36 122,-73 165,-84 132,-31 497,-18 658,25 190,50 265,50 358,2 40,-20 115,-45 168,-55 l 96,-18 15,168 c 9,92 15,221 13,287 -1,65 7,220 17,344 13,169 4,316 -38,598 -30,206 -55,465 -55,576 0,202 0,202 -66,188 -37,-7 -96,-19 -131,-27 -57,-11 -69,0 -95,86 -17,55 -37,232 -45,393 -11,247 -6,305 31,362 44,67 43,70 -25,114 -38,25 -128,51 -200,58 l -131,13 1,241 c 0,273 42,478 159,780 l 80,208 164,73 c 705,317 1821,501 3463,572 806,35 974,22 1224,-93 171,-78 377,-262 490,-439 l 81,-126 244,-17 c 372,-28 1059,-140 1466,-240 337,-83 975,-283 1008,-317 8,-8 54,-267 103,-576 49,-309 95,-589 102,-622 l 13,-59 h 780 c 429,0 780,8 779,19 -1,11 -283,1080 -628,2374 l -627,2354 -318,164 c -367,190 -890,371 -1362,472 -182,38 -389,88 -460,110 -70,22 -302,50 -515,61 -213,12 -547,41 -742,65 -194,24 -468,48 -608,52 -409,14 -1249,24 -1917,26 h -409 c -228,-1 -406,-3 -494,-7 z"
     id="path1166"
     style="display:inline" /></g><g
   inkscape:groupmode="layer"
   id="layer2"
   inkscape:label="Layer 2"><path
     fill="rgb(123,61,0)"
     stroke="none"
     d="M 8927,7837 C 9186,7791 9206,7782 9457,7609 9772,7391 9995,7228 9995,7215 9995,7209 9863,7233 9702,7268 7593,7724 5700,7858 4149,7661 3492,7578 2685,7396 1927,7160 1718,7095 1541,7047 1535,7054 1511,7077 1732,7346 2150,7802 2199,7855 2950,7959 3818,8034 4302,8076 5555,8121 5828,8107 5901,8103 6192,8094 6476,8087 7228,8067 8171,7971 8927,7837 Z"
     id="path1173" /><path
     fill="rgb(123,61,0)"
     stroke="none"
     d="M 824,5824 C 787,5649 776,5487 778,5097 779,4534 815,4310 988,3795 1076,3533 1369,2923 1471,2789 1515,2732 1516,2738 1508,2967 1484,3575 1693,4012 2110,4223 2184,4261 2244,4287 2244,4282 2244,4277 2215,4200 2178,4111 2070,3844 2021,3498 2057,3243 2086,3035 2084,3025 2010,2844 1907,2596 1874,2427 1875,2166 1875,1963 1940,1592 2003,1427 2028,1364 2025,1354 1984,1354 1958,1354 1878,1374 1806,1398 1614,1464 1423,1673 1181,2082 117,3883 -111,5418 516,6565 722,6941 1106,7338 1487,7569 1598,7636 1869,7753 1916,7754 1931,7755 1854,7661 1744,7547 1268,7053 967,6489 824,5824 Z"
     id="path1180" /><path
     fill="rgb(123,61,0)"
     stroke="none"
     d="M 10999,7136 C 11011,7105 11272,6129 11580,4965 11888,3801 12151,2816 12164,2776 L 12188,2703 11560,2703 10931,2703 10858,3182 C 10817,3445 10790,3666 10798,3674 10829,3705 11057,3609 11251,3482 L 11325,3433 11307,3617 C 11276,3928 11161,4602 11076,4978 10911,5704 10590,6661 10413,6953 10294,7151 9971,7453 9703,7618 9581,7693 9499,7755 9522,7755 9544,7755 9686,7720 9838,7677 10340,7536 10956,7249 10999,7136 Z"
     id="path1187" /><path
     fill="rgb(123,61,0)"
     stroke="none"
     d="M 9810,7057 L 10220,6975 10330,6750 C 10390,6626 10437,6522 10434,6519 10430,6515 10268,6547 10072,6590 8728,6884 7464,7061 6256,7122 4385,7216 2646,6889 1231,6177 1021,6071 1026,6056 1164,6405 1302,6754 1303,6755 1681,6894 2658,7251 3752,7490 4771,7568 5202,7601 6288,7581 6821,7530 7621,7453 8682,7285 9810,7057 Z"
     id="path1194" /><path
     fill="rgb(123,61,0)"
     stroke="none"
     d="M 8356,6720 C 9052,6612 10477,6329 10514,6291 10543,6261 10742,5689 10728,5675 10724,5671 10620,5698 10497,5734 10107,5849 9177,6080 8765,6164 6158,6698 4076,6642 2284,5990 1931,5862 1456,5648 1187,5497 1067,5429 962,5374 954,5374 930,5374 972,5802 1000,5836 1015,5854 1155,5935 1312,6015 2329,6541 3459,6845 4758,6943 5038,6964 6151,6959 6504,6934 7026,6899 7736,6816 8356,6720 Z"
     id="path1201" /><path
     fill="rgb(123,61,0)"
     stroke="none"
     d="M 6874,6234 C 7851,6139 8999,5928 10152,5632 L 10798,5466 10859,5228 C 10892,5098 10920,4971 10920,4948 10921,4912 10859,4924 10544,5022 9395,5376 8136,5641 7033,5762 6490,5821 5064,5830 4612,5776 3296,5621 2153,5265 1181,4705 L 977,4587 962,4736 C 954,4818 941,4940 933,5009 L 920,5133 1145,5255 C 1512,5455 1992,5661 2443,5811 3265,6084 3818,6188 4969,6285 5234,6307 6465,6274 6874,6234 Z"
     id="path1208" /><path
     fill="rgb(123,61,0)"
     stroke="none"
     d="M 10749,4773 L 10987,4697 11057,4329 C 11096,4126 11135,3909 11145,3848 L 11162,3736 10969,3818 C 10152,4167 9303,4384 8355,4488 7989,4528 7968,4533 7918,4601 7724,4869 7483,5053 7210,5143 7065,5191 6986,5197 6530,5193 5357,5184 4168,5060 3316,4859 2437,4651 1655,4158 1376,3634 1328,3544 1279,3475 1267,3483 1244,3497 1104,3966 1044,4230 L 1006,4395 1240,4529 C 2252,5107 3409,5467 4690,5600 5220,5655 6566,5634 7178,5560 8291,5427 9621,5134 10749,4773 Z"
     id="path1215" /><path
     fill="rgb(123,61,0)"
     stroke="none"
     d="M 2419,2316 L 2461,2115 2378,1951 C 2325,1847 2289,1727 2276,1617 2262,1488 2247,1445 2212,1439 2075,1412 1968,2465 2083,2718 2132,2825 2249,2940 2310,2940 2332,2940 2349,2868 2360,2728 2370,2612 2397,2426 2419,2316 Z"
     id="path1222" /><path
     fill="rgb(123,61,0)"
     stroke="none"
     d="M 2747,1872 C 2747,1808 2777,1579 2813,1365 2891,908 2897,740 2838,681 2672,515 2463,928 2418,1513 2398,1773 2435,1867 2591,1944 2729,2011 2747,2003 2747,1872 Z"
     id="path1229" /><path
     fill="rgb(123,61,0)"
     stroke="none"
     d="M 2138,1230 C 2235,1212 2411,1014 2503,821 2546,729 2609,629 2641,600 2736,515 2804,357 2795,241 L 2787,137 2641,224 C 2561,272 2478,346 2455,390 2433,433 2405,484 2393,503 2357,560 2314,496 2312,383 2311,293 2299,277 2205,231 2133,196 2025,176 1872,169 1647,158 1644,158 1547,244 1467,313 1421,332 1298,342 1215,348 1079,376 998,403 883,442 829,447 760,427 546,366 448,422 426,622 406,801 444,847 621,857 730,863 779,878 800,912 840,977 783,1009 624,1010 473,1010 454,1065 582,1131 660,1172 676,1172 819,1128 L 973,1082 1081,1156 C 1321,1323 1541,1354 1914,1276 2001,1258 2102,1237 2138,1230 Z"
     id="path1236" /><path
     fill="#000000"
     stroke="none"
     d="m 1583,375 c 73,-73 260,-72 354,2 90,71 88,120 -9,170 -109,56 -246,50 -328,-15 -84,-66 -86,-87 -17,-157 z"
     id="path1243"
     style="display:inline" /><path
     fill="#7b3d00"
     stroke="none"
     d="m 1683,423 c -15,15 -18,41 -8,57 26,43 133,23 133,-25 0,-47 -87,-69 -125,-32 z"
     id="path1250"
     style="display:inline" /></g></svg>
