<?xml version="1.0" encoding="UTF-8" standalone="no"?>
<!-- Created with Inkscape (http://www.inkscape.org/) -->

<svg
   version="1.1"
   id="svg198"
   width="1087.6633"
   height="1102.887"
   viewBox="0 0 1087.6633 1102.887"
   sodipodi:docname="2a.svg"
   inkscape:version="1.2.2 (732a01da63, 2022-12-09, custom)"
   xmlns:inkscape="http://www.inkscape.org/namespaces/inkscape"
   xmlns:sodipodi="http://sodipodi.sourceforge.net/DTD/sodipodi-0.dtd"
   xmlns="http://www.w3.org/2000/svg"
   xmlns:svg="http://www.w3.org/2000/svg">
  <defs
     id="defs202" />
  <sodipodi:namedview
     id="namedview200"
     pagecolor="#ffffff"
     bordercolor="#000000"
     borderopacity="0.25"
     inkscape:showpageshadow="2"
     inkscape:pageopacity="0.0"
     inkscape:pagecheckerboard="0"
     inkscape:deskcolor="#d1d1d1"
     showgrid="false"
     inkscape:zoom="0.59312321"
     inkscape:cx="558.0628"
     inkscape:cy="660.90821"
     inkscape:window-width="1920"
     inkscape:window-height="1031"
     inkscape:window-x="0"
     inkscape:window-y="25"
     inkscape:window-maximized="1"
     inkscape:current-layer="layer2" />
  <g
     inkscape:groupmode="layer"
     id="layer1"
     inkscape:label="Layer 1"
     style="fill:#a05a2c">
    <g
       inkscape:groupmode="layer"
       id="layer2"
       inkscape:label="Base">
      <path
         id="path316"
         style="display:inline;fill:#000000;stroke-width:1.33333"
         d="M 301.00968 37.328609 C 297.85506 37.274653 294.68075 38.813795 291.54483 41.949703 C 283.60582 49.888721 282.88272 55.131105 282.88272 104.66845 L 282.88272 148.64111 L 235.60343 387.42627 C 209.59954 518.75824 178.30952 676.91296 166.07022 738.87939 C 153.83092 800.84582 143.38498 852.03623 142.85928 852.63525 C 142.33362 853.23427 121.0919 848.51719 95.654207 842.15283 C 70.216501 835.78841 49.073498 830.91127 48.669832 831.31494 C 47.584696 832.40008 54.272934 874.41151 60.2753 904.21337 C 68.756908 946.32481 79.712617 987.05295 90.402253 1016.2134 C 97.258969 1034.918 112.44268 1064.9445 120.20889 1075.1567 C 138.6385 1099.3906 190.62623 1130.3271 226.21671 1138.2388 C 232.77243 1139.6966 288.61586 1139.9739 535.54874 1139.7817 L 836.88272 1139.5474 L 845.82413 1136.0669 C 863.2829 1129.2721 883.8542 1115.2189 907.79483 1093.731 L 920.90421 1081.9634 L 925.20889 1084.7563 C 927.57674 1086.2916 929.52216 1087.9957 929.53116 1088.5435 C 929.55255 1089.7624 915.33361 1105.1507 895.64639 1125.2134 L 880.92569 1140.2134 L 957.76358 1140.2134 C 1030.9525 1140.2134 1035.0134 1140.0855 1043.2753 1137.5337 C 1066.8121 1130.2639 1091.4185 1102.7675 1096.0097 1078.606 C 1096.751 1074.7046 1097.6858 1036.9547 1098.0976 994.21337 C 1098.5074 951.6803 1099.2119 915.56617 1099.664 913.95947 C 1100.4073 911.31777 1101.1087 911.11228 1106.9921 911.80908 C 1113.2004 912.54438 1113.7363 912.34029 1118.6972 907.37939 C 1127.6987 898.37793 1129.0333 880.80564 1121.2655 873.56884 C 1117.75 870.29365 1118.5052 868.59097 1128.9316 856.27587 C 1132.9379 851.54329 1136.2167 847.27689 1136.2167 846.79541 C 1136.2167 845.83653 1086.421 842.33515 1071.7167 842.26025 L 1062.5507 842.21337 L 1058.6034 852.54736 C 1055.0077 861.96266 1054.3333 862.87939 1051.0038 862.87939 C 1043.0225 862.87939 1016.6247 857.21529 996.63858 851.21337 L 975.54874 844.87939 L 968.84952 796.21337 L 962.1503 747.54736 L 967.51553 746.64502 C 970.46698 746.14938 981.43276 745.69942 991.88272 745.64502 C 1002.3328 745.59068 1010.8827 745.18694 1010.8827 744.74658 C 1010.8827 742.47493 994.41185 710.04128 988.26749 700.21337 C 954.54472 646.27385 889.48684 578.93839 781.60147 486.31103 C 754.50663 463.04813 708.29967 424.86581 632.21671 362.87353 C 508.91619 262.40846 474.62737 233.19768 421.54874 183.39892 C 379.89017 144.31437 352.12445 112.99388 331.84366 82.213375 L 321.30069 66.213375 L 322.07608 144.88134 C 322.50265 188.14785 323.51432 360.94869 324.32413 528.88134 C 325.13395 696.81404 325.99233 834.88761 326.23233 835.71142 C 326.92469 838.08797 345.14914 845.10883 357.54874 847.77587 C 373.04792 851.10957 427.42557 851.08955 452.88272 847.74072 C 505.03021 840.88088 555.13058 830.50785 673.54874 802.05322 C 779.22682 776.65987 824.90864 766.6103 872.21671 758.34423 C 900.27954 753.4409 938.32496 748.21233 945.9335 748.21533 L 950.21671 748.21533 L 956.42178 793.88134 C 959.83479 818.99726 962.44312 839.73751 962.21866 839.97119 C 961.99419 840.20487 953.49741 838.30773 943.3378 835.75439 C 915.16103 828.67293 903.05326 827.60997 870.16007 829.32861 C 841.59372 830.82117 829.84561 832.82696 822.29288 837.50439 C 813.33363 843.05285 810.69628 855.28616 816.87686 862.63134 C 825.20804 872.53242 849.02629 876.47203 911.44913 878.27392 C 936.92121 879.00919 942.4976 879.57499 954.78311 882.6665 L 968.88272 886.21337 L 970.31241 895.76611 L 971.74405 905.31884 L 944.31241 912.06494 C 911.93134 920.0298 886.01338 925.31346 852.21671 930.83642 C 823.70478 935.49582 789.49441 940.21337 784.22257 940.21337 L 780.58975 940.21337 L 780.73624 922.54736 C 780.90682 901.97204 778.99205 895.99642 770.88272 891.79736 C 764.61094 888.54986 749.80091 889.30501 742.07413 893.26611 C 733.96424 897.42367 732.88272 901.16695 732.88272 925.09423 L 732.88272 945.30712 L 724.88272 946.09814 C 654.37494 953.0568 524.41118 954.00125 440.21671 948.16845 C 418.4666 946.66165 370.35492 942.02172 363.54874 940.77392 L 359.54874 940.03955 L 359.54874 920.45947 C 359.54874 903.80765 359.18997 900.35174 357.1503 897.34814 C 353.47887 891.94148 347.73477 890.21337 333.43546 890.21337 L 320.65616 890.21337 L 319.76944 641.54736 C 319.28208 504.78125 318.88293 318.13943 318.88272 226.78955 C 318.88228 43.000527 319.28611 51.739222 310.35733 42.271968 C 307.29987 39.030129 304.16426 37.382565 301.00968 37.328609 z M 282.5878 210.21337 L 282.73428 545.93994 L 282.88272 881.66845 L 277.88272 880.60791 C 264.13448 877.69212 250.37497 880.60216 246.58975 887.22705 C 245.65135 888.86941 244.58338 896.0601 244.21671 903.20556 L 243.54874 916.19775 L 226.0253 910.23291 C 216.38733 906.95211 198.0879 900.00701 185.35928 894.79931 C 172.63071 889.59165 159.66537 884.34945 156.54874 883.15087 C 152.89069 881.74414 150.88272 880.14923 150.88272 878.65283 C 150.88272 876.51653 254.87328 347.99119 274.13858 252.21337 L 282.5878 210.21337 z M 982.4335 889.71533 C 982.74563 889.7206 983.15901 889.80829 983.68741 889.95752 C 985.07811 890.35029 989.81671 891.6951 994.21671 892.9458 L 1002.2167 895.21923 L 995.54874 897.52197 C 982.36787 902.07324 982.88514 902.0278 982.86514 898.6372 C 982.85514 896.9378 982.46586 894.12849 982.00186 892.39502 C 981.47296 890.41899 981.49712 889.69951 982.4335 889.71533 z M 1031.9901 900.76416 C 1032.806 900.75695 1034.0006 900.92973 1035.2148 901.2583 L 1038.748 902.21337 L 1031.1112 919.80517 C 1026.9117 929.48076 1023.1481 937.72528 1022.748 938.12548 C 1022.3478 938.52558 1021.0215 938.1087 1019.7987 937.1997 C 1017.7669 935.6891 1018.1245 934.08672 1023.955 918.59814 C 1027.464 909.27665 1030.6388 901.34795 1031.0097 900.97705 C 1031.1487 900.838 1031.5006 900.76848 1031.9901 900.76416 z M 1004.4882 970.9165 C 1004.7807 970.96234 1005.065 971.24741 1005.5155 971.52587 C 1007.9816 973.04997 981.82308 1018.9491 964.28116 1043.8794 C 960.54015 1049.1961 957.04644 1053.5075 956.51553 1053.4575 C 955.98466 1053.4079 954.21425 1052.722 952.58194 1051.9341 C 949.6629 1050.5251 949.7196 1050.3782 956.00968 1043.0239 C 971.79524 1024.5674 985.62958 1004.4282 996.86514 983.54736 C 1002.6538 972.78948 1003.6107 970.77897 1004.4882 970.9165 z "
         transform="translate(-48.552644,-37.326656)" />
    </g>
    <path
       style="fill:#a05a2c;stroke-width:1.33333"
       d="m 1107.5013,864.57077 c 1.8597,-2.7369 3.3814,-5.37321 3.3814,-5.85845 0,-0.48525 -5.55,-1.26321 -12.3334,-1.7288 -6.7833,-0.4656 -15.789,-1.18887 -20.0127,-1.60728 l -7.6794,-0.76075 -2.0654,4.94318 c -1.1359,2.71874 -1.8158,5.19276 -1.5107,5.49781 0.4328,0.43283 16.946,2.46077 35.2202,4.32532 0.8902,0.0908 3.1402,-2.07413 5,-4.81103 z"
       transform="translate(-48.552644,-37.326656)"
       id="path382" />
    <path
       style="fill:#a05a2c;stroke-width:1.33333"
       d="m 1112.9507,894.25648 c 2.3734,-5.6805 2.4794,-9.94485 0.2653,-10.6798 -0.9167,-0.30428 -14.2667,-1.82908 -29.6667,-3.38844 -44.9213,-4.54863 -63.3718,-8.18372 -105.15415,-20.71725 -56.16766,-16.84878 -58.56101,-17.28843 -93.00613,-17.08528 -31.74809,0.18724 -49.31713,2.05621 -55.67496,5.92264 -5.509,3.35021 -5.25684,5.84766 0.83524,8.27269 12.09972,4.81643 33.76703,7.14836 77.66667,8.35887 34.81631,0.96004 37.60997,1.39045 77.33338,11.91432 25.18385,6.67192 42.29785,9.894 98.66665,18.57605 27.7457,4.2735 26.4363,4.3269 28.7347,-1.1738 z"
       transform="translate(-48.552644,-37.326656)"
       id="path380" />
    <path
       style="fill:#a05a2c;stroke-width:1.33333"
       d="m 304.5493,925.56518 3.66667,-0.0182 -0.0293,-431.6667 c -0.0284,-419.104763 -0.102,-431.826793 -2.52784,-437.168843 -1.3742,-3.0262 -3.08083,-5.86204 -3.79252,-6.30189 -1.94875,-1.20439 -5.20438,3.14234 -6.84374,9.1374 -1.7079,6.24566 -1.98025,309.098893 -0.5849,650.430983 l 0.88746,217.09765 2.77875,-0.7461 c 1.52831,-0.4104 4.42873,-0.7543 6.4454,-0.7643 z"
       transform="translate(-48.552644,-37.326656)"
       id="path374" />
    <path
       style="fill:#a05a2c;stroke-width:1.33333"
       d="m 281.15002,905.80928 c -0.29846,-5.3557 -1.14525,-10.3402 -1.88176,-11.0767 -1.73369,-1.7337 -15.15146,-3.1178 -19.542,-2.0159 -4.35558,1.0932 -5.57458,6.9259 -3.99653,19.1225 l 1.15291,8.9108 11.33333,2.8132 11.33333,2.8133 1.0717,-5.4148 c 0.58942,-2.9781 0.82748,-9.7967 0.52902,-15.1524 z"
       transform="translate(-48.552644,-37.326656)"
       id="path372" />
    <path
       style="fill:#a05a2c;stroke-width:1.33333"
       d="m 347.92436,921.17408 c 0.35724,-14.7537 0.23674,-15.5627 -2.53935,-17.0484 -3.36295,-1.7998 -18.36457,-2.3864 -20.83571,-0.8147 -1.13789,0.7237 -1.66089,4.9479 -1.64846,13.3147 0.0271,18.2048 -0.26023,17.7349 11.76569,19.2429 5.61887,0.7046 10.81611,1.1715 11.54944,1.0376 0.77243,-0.141 1.49111,-6.7593 1.70839,-15.7321 z"
       transform="translate(-48.552644,-37.326656)"
       id="path370" />
    <path
       style="fill:#a05a2c;stroke-width:1.33333"
       d="m 757.29914,942.35108 c 5.3624,-1.0226 10.12675,-2.2363 10.58742,-2.6969 0.46068,-0.4607 0.87325,-8.3417 0.91684,-17.5134 0.0637,-13.3977 -0.31391,-16.941 -1.92076,-18.0253 -2.68114,-1.8092 -18.22764,-0.8732 -20.32963,1.2239 -2.4848,2.4791 -3.20681,38.8748 -0.77115,38.8727 0.9721,-9e-4 6.15487,-0.8383 11.51728,-1.861 z"
       transform="translate(-48.552644,-37.326656)"
       id="path366" />
    <path
       style="fill:#a05a2c;stroke-width:1.33333"
       d="m 1053.9118,976.01338 c 1.4444,-1.9434 2.2485,-4.1446 1.7869,-4.8914 -0.8987,-1.4542 -55.5582,-29.9261 -60.34225,-31.4321 -1.8417,-0.5797 -3.6214,-0.1382 -5,1.2404 -4.0127,4.0127 -6.0311,2.4008 34.49855,27.5502 20.6148,12.7918 24.416,13.7773 29.0568,7.5329 z"
       transform="translate(-48.552644,-37.326656)"
       id="path364" />
    <path
       style="fill:#a05a2c;stroke-width:1.33333"
       d="m 672.21597,1019.54 c 104.87305,-8.0622 190.13821,-29.04985 256.66667,-63.17722 21.05012,-10.7982 39.37736,-22.3308 49.13021,-30.9156 l 5.8322,-5.1337 3.0845,3.2834 c 2.0961,2.2312 4.5268,3.2834 7.5851,3.2834 2.4752,0 6.20545,0.8817 8.28935,1.9593 3.6497,1.8874 3.8415,1.8262 5.2211,-1.6667 2.2992,-5.8211 8.1909,-21.9048 8.1909,-22.3603 0,-0.2293 -7.05,1.9515 -15.6666,4.8464 -44.10836,14.8184 -106.12372,28.6072 -170.23392,37.8504 -37.05962,5.3432 -86.99855,11.1207 -103.43284,11.9663 -6.23334,0.3208 -20.33334,1.2154 -31.33334,1.9881 -129.01176,9.0624 -294.12882,2.2222 -385.36277,-15.964 -7.34953,-1.4651 -15.74953,-2.9571 -18.66667,-3.3157 -18.07573,-2.2219 -70.16165,-18.8041 -109.97056,-35.0104 -35.90619,-14.6175 -38.78925,-15.5899 -59.72953,-20.1459 -10.48458,-2.28111 -19.41718,-4.1475 -19.85024,-4.1475 -1.65399,0 6.06317,47.8375 8.93622,55.3941 2.57525,6.7735 67.79491,29.5211 127.97689,44.63636 84.15814,21.13716 177.0014,33.79116 283.33333,38.61686 35.40705,1.6068 117.37172,0.5208 150,-1.9876 z"
       transform="translate(-48.552644,-37.326656)"
       id="path362" />
    <path
       style="fill:#a05a2c;stroke-width:1.33333"
       d="m 620.88264,1073.4958 c 103.34201,-5.6238 191.27128,-20.5408 262.66666,-44.5608 35.12003,-11.8157 31.08506,-8.889 50.90568,-36.92355 20.29496,-28.70547 25.76099,-36.69187 25.76099,-37.63957 0,-0.3821 -4.65,2.0723 -10.33333,5.4541 -57.54584,34.24207 -150.23604,60.40722 -249,70.28902 -70.27264,7.0312 -162.9379,7.0493 -248,0.048 -125.86351,-10.3589 -242.78326,-35.46835 -331,-71.08472 -3.85,-1.5544 -7.00001,-2.5829 -7.00001,-2.2856 0,1.5505 9.49132,33.21757 11.13533,37.15227 2.22443,5.32384 7.63483,7.71155 47.53134,20.97675 99.61276,33.1201 201.22496,52.1558 315.33334,59.0734 17.63482,1.0691 109.56748,0.721 132,-0.4997 z"
       transform="translate(-48.552644,-37.326656)"
       id="path358" />
    <path
       style="fill:#a05a2c;stroke-width:1.33333"
       d="m 798.20942,1100.0711 c 22.57987,-3.6574 44.86044,-9.8103 57.44215,-15.8628 8.35673,-4.0201 12.68735,-7.2185 19.33333,-14.2785 8.13084,-8.6374 26.5644,-31.4422 26.5644,-32.8637 0,-0.3664 -4.90106,1.1225 -10.89125,3.3086 -21.58867,7.8789 -66.50629,19.6043 -101.10875,26.3936 -104.1926,20.4436 -235.28884,26.7417 -348,16.7186 -98.58509,-8.767 -199.5141,-30.5191 -289.90466,-62.4799 -9.48091,-3.3523 -17.41584,-5.9173 -17.63318,-5.7 -0.21735,0.2174 2.5809,6.4616 6.21834,13.8761 7.98872,16.2841 20.41337,33.1595 29.11901,39.55 15.43513,11.3305 54.30176,28.4613 74.86716,32.9984 10.93871,2.4133 20.50227,2.4731 274.66012,1.7164 252.36263,-0.7514 263.99324,-0.892 279.33333,-3.3768 z"
       transform="translate(-48.552644,-37.326656)"
       id="path356" />
    <path
       style="fill:#a05a2c;stroke-width:1.33333"
       d="m 1022.4672,1119.589 c 3.3687,-0.9655 11.0821,-9.2726 11.0821,-11.9351 0,-2.7871 -3.3653,-4.5744 -52.89135,-28.0895 -47.4075,-22.5093 -52.73082,-24.3584 -58.33213,-20.2626 -5.95182,4.352 0.11774,9.5103 35.22348,29.9345 33.34295,19.3987 57.7897,32.3389 59.97,31.7434 1.1165,-0.305 3.3431,-0.9308 4.9479,-1.3907 z"
       transform="translate(-48.552644,-37.326656)"
       id="path354" />
    <path
       style="fill:#a05a2c;stroke-width:1.33333"
       d="m 1048.3364,1121.3175 c 11.8974,-5.888 24.3823,-18.8122 31.2129,-32.3113 l 5.3334,-10.54 0.8341,-62.1263 c 0.4587,-34.16952 1.0419,-72.32632 1.2959,-84.79292 l 0.4619,-22.6667 -15.2959,-2.332 c -8.4128,-1.2826 -16.6875,-2.1826 -18.3882,-2 -3.0792,0.3306 -4.2023,2.5044 -18.2343,35.2921 l -1.8374,4.2934 14.3403,7.4508 c 15.9856,8.3057 18.8236,11.4674 18.8236,20.9709 0,6.9531 -3.7885,13.39487 -10.5623,17.95967 -7.2501,4.8859 -12.2926,4.0437 -26.4805,-4.423 -6.8707,-4.10007 -12.6765,-7.25007 -12.9017,-6.99997 -0.2253,0.2501 -2.6584,4.95476 -5.4069,10.45477 -6.0999,12.20645 -21.96445,38.62285 -34.13215,56.83425 l -9.02035,13.5009 5.58525,2.4151 c 3.0719,1.3283 19.4324,9.1302 36.35675,17.3376 28.0924,13.6233 30.9654,15.3313 33,19.6188 1.2257,2.583 2.2285,5.975 2.2285,7.5377 0,4.0083 -3.6107,12.1694 -6.9627,15.7375 -4.107,4.3717 -0.6681,3.9444 9.7498,-1.2113 z"
       transform="translate(-48.552644,-37.326656)"
       id="path352" />
    <path
       style="fill:#a05a2c;stroke-width:1.33333"
       d="m 969.65346,1110.8146 -28.46141,-16.0658 -6.79789,7.7324 c -3.73883,4.2528 -10.35355,11.4824 -14.69938,16.0658 l -7.90149,8.3333 h 43.16079 43.16077 z"
       transform="translate(-48.552644,-37.326656)"
       id="path350" />
    <path
       style="display:inline;fill:#a05a2c;stroke-width:1.33333"
       d="m 840.36714,1123.8057 c 15.82564,-5.3946 38.96295,-21.1513 62.53018,-42.5836 7.91773,-7.2005 8.32834,-7.8617 6.86985,-11.0627 -5.94779,-13.054 6.04249,-26.9889 22.12219,-25.71 6.03865,0.4802 6.09894,0.4425 14.06572,-8.814 16.81953,-19.5423 33.51307,-44.12695 42.48117,-62.56212 l 4.4464,-9.1403 -3.1887,-2.193 c -1.7538,-1.2062 -5.1746,-4.0538 -7.6018,-6.3282 l -4.4131,-4.1351 -17.64216,25.4685 c -39.77049,57.41322 -67.71496,94.07452 -81.62531,107.08692 -13.42785,12.5611 -30.2242,19.3598 -67.40392,27.283 l -19.45836,4.1468 -242,1.1974 c -289.94272,1.4347 -296.02026,1.3699 -313.33333,-3.3417 -16.49251,-4.4883 -32.62121,-11.0665 -53.85745,-21.9661 -13.41243,-6.884 -19.05646,-10.6616 -25.67918,-17.1872 -20.19904,-19.9029 -37.3547,-55.5881 -50.44837,-104.93662 -10.156832,-38.28 -20.946782,-102.1474 -17.257072,-102.1474 0.41686,0 10.35937,2.1 22.094472,4.66667 11.73511,2.56666 22.19405,4.66666 23.24208,4.66666 1.32432,0 1.90552,-1.57754 1.90552,-5.17209 v -5.17211 l -36.0488,-9.00132 c -19.826842,-4.95072 -36.430138,-8.61997 -36.896228,-8.15389 -1.16264,1.16264 1.4566,17.84155 7.77334,49.49938 16.918506,84.79116 38.810268,146.15032 61.570238,172.57132 17.59314,20.4232 65.31373,47.4897 96.26812,54.6021 3.15053,0.7239 127.5703,1.2662 304,1.3249 l 298.66666,0.1 8.81784,-3.0058 z"
       transform="translate(-48.552644,-37.326656)"
       id="path348" />
    <g
       inkscape:groupmode="layer"
       id="layer3"
       inkscape:label="Sail">
      <path
         style="display:inline;fill:#e9ddaf;stroke-width:1.33333"
         d="m 418.21597,837.51447 c 57.68836,-3.82056 108.6956,-13.61604 259.33333,-49.80264 162.23162,-38.97171 221.84938,-50.17728 289.25328,-54.36716 l 25.40337,-1.57908 -5.3455,-9.91026 C 958.16189,668.65012 891.50849,597.56315 780.82626,502.11645 748.73997,474.44687 699.0161,433.23503 620.88264,369.55288 487.3621,260.72788 434.78093,214.96291 385.5443,164.72189 363.90358,142.63973 349.89562,126.99945 337.27858,110.83188 l -3.60406,-4.61827 -0.0451,60.66667 c -0.0412,55.55305 0.99193,221.5108 3.35943,539.63537 l 0.90521,121.63539 6.82757,2.54392 c 9.27176,3.45461 20.34907,5.62536 34.76095,6.81188 17.58237,1.44753 16.99325,1.44743 38.73331,0.008 z"
         transform="translate(-48.552644,-37.326656)"
         id="path384" />
    </g>
  </g>
</svg>
